<?xml version="1.0" standalone="no"?>
<!DOCTYPE svg PUBLIC "-//W3C//DTD SVG 20010904//EN"
 "http://www.w3.org/TR/2001/REC-SVG-20010904/DTD/svg10.dtd">
<svg version="1.0" xmlns="http://www.w3.org/2000/svg"
 width="700.000000pt" height="700.000000pt" viewBox="0 0 700.000000 700.000000"
 preserveAspectRatio="xMidYMid meet">
<metadata>
Created by potrace 1.11, written by Peter Selinger 2001-2013
</metadata>
<g transform="translate(0.000000,700.000000) scale(0.100000,-0.100000)"
fill="#000000" stroke="none">
<path d="M1648 6185 c-1 -1 -61 -6 -132 -9 -71 -4 -132 -8 -135 -10 -3 -2 -31
-7 -61 -10 -314 -38 -587 -203 -681 -413 -63 -140 -63 -127 -64 -928 -1 -396
-5 -740 -9 -764 -38 -212 -171 -357 -388 -422 -40 -12 -75 -26 -78 -30 -3 -4
-4 -26 -2 -47 4 -37 5 -39 55 -52 212 -53 366 -202 402 -390 2 -12 7 -31 11
-43 4 -12 8 -353 9 -757 2 -816 0 -796 70 -938 93 -188 324 -340 590 -386 17
-3 41 -8 55 -11 76 -15 175 -24 315 -29 l91 -4 -1 73 c0 40 -3 76 -6 80 -4 3
-19 8 -35 11 -273 46 -410 181 -458 449 -3 17 -6 343 -6 725 -1 769 -2 787
-64 915 -72 150 -214 253 -446 325 -103 32 -141 50 -108 50 9 0 62 16 118 34
160 55 293 134 373 221 24 26 86 138 94 169 30 120 32 160 33 841 0 380 2 699
4 710 2 11 7 41 10 68 19 143 119 281 250 346 54 27 128 49 222 67 19 3 21 10
20 75 -1 64 -3 73 -23 80 -11 4 -23 6 -25 4z"/>
<path d="M5349 6183 c-13 -3 -16 -18 -16 -79 1 -72 2 -75 26 -80 158 -31 242
-68 315 -135 67 -62 111 -137 137 -234 20 -78 21 -102 23 -800 2 -396 6 -736
10 -755 4 -19 8 -42 10 -50 32 -167 143 -295 339 -388 82 -40 233 -92 265 -92
28 0 0 -16 -53 -30 -250 -66 -438 -196 -509 -352 -19 -40 -36 -89 -40 -108 -3
-19 -9 -46 -12 -60 -4 -14 -8 -347 -9 -740 -2 -393 -5 -726 -8 -740 -53 -256
-178 -380 -433 -431 l-62 -13 1 -76 1 -77 90 3 c95 3 217 12 251 19 11 3 36 7
55 9 29 4 104 21 180 41 74 19 181 69 262 122 144 95 247 250 274 414 4 24 8
366 9 759 1 393 5 731 9 750 30 157 80 245 188 332 57 47 96 66 197 98 l84 26
0 37 c-1 20 -2 41 -2 45 -1 5 -29 16 -62 26 -143 40 -274 130 -332 229 -30 51
-65 150 -73 209 -4 24 -8 367 -9 763 -2 396 -6 734 -8 750 -35 196 -168 370
-358 465 -145 74 -366 125 -579 136 -69 3 -129 7 -135 8 -5 1 -17 1 -26 -1z"/>
<path d="M2570 4760 c-223 -66 -471 -138 -552 -161 l-148 -43 0 -65 0 -66 168
-102 167 -101 0 -1029 c1 -565 -3 -1048 -7 -1072 -13 -70 -48 -107 -124 -131
-37 -11 -96 -23 -133 -26 -36 -4 -68 -8 -70 -10 -2 -2 -4 -49 -5 -104 l-1
-100 867 0 c478 0 868 3 869 8 4 38 3 186 -1 192 -5 8 -32 13 -140 25 -63 7
-171 35 -214 56 -57 26 -92 75 -105 144 -6 29 -10 388 -10 846 l0 795 47 35
c108 81 161 112 250 145 88 34 163 49 332 69 38 5 309 15 403 15 l27 0 0 354
0 353 -37 26 c-67 46 -119 60 -217 61 -140 1 -218 -18 -322 -79 -145 -85 -322
-361 -446 -695 -11 -30 -24 -59 -28 -64 -5 -4 -7 41 -5 100 6 219 18 650 19
694 l0 45 -89 2 c-88 1 -101 -2 -495 -117z"/>
<path d="M4465 2782 c-55 -6 -160 -42 -208 -71 -64 -37 -142 -113 -183 -177
-51 -79 -76 -165 -79 -274 -6 -159 38 -285 137 -391 106 -114 225 -168 383
-175 142 -6 265 36 374 126 120 100 183 235 187 400 5 172 -49 307 -165 418
-61 58 -188 126 -256 136 -52 9 -152 13 -190 8z"/>
</g>
</svg>
