<svg style="shape-rendering:geometricPrecision;text-rendering:geometricPrecision;image-rendering:optimizeQuality;" viewBox="0 0 6.82666 8.533325000000001" x="0px" y="0px" fill-rule="evenodd" clip-rule="evenodd"><defs><style type="text/css">
   
    .fil1 {fill:none}
    .fil0 {fill:black;fill-rule:nonzero}
   
  </style></defs><g><path class="fil0" d="M3.41333 1.70208c0.371594,-0.557594 0.851559,-0.770898 1.29613,-0.740787 0.23215,0.0157244 0.453988,0.0985315 0.645429,0.234012 0.189815,0.134331 0.349358,0.320457 0.458709,0.544079 0.260024,0.531764 0.238177,1.276 -0.33728,2.03498l0.000397638 0.000299213c-0.00423228,0.00557874 -0.00890945,0.0106181 -0.013937,0.015122l-1.97276 2.0456 -0.0766654 -0.073752 0.0767795 0.0740472c-0.0408937,0.0424016 -0.108425,0.043626 -0.150827,0.00273228 -0.00284646,-0.00274409 -0.00550394,-0.00561417 -0.00797638,-0.00858268l-1.97295 -2.04576 -0.000208661 0.000200787c-0.00567323,-0.00588189 -0.0105315,-0.012252 -0.0145866,-0.0189646 -0.568776,-0.755831 -0.5895,-1.49626 -0.330512,-2.02591 0.109343,-0.223622 0.26889,-0.409748 0.458705,-0.544079 0.191441,-0.13548 0.41328,-0.218287 0.645425,-0.234012 0.444575,-0.0301142 0.924539,0.183193 1.29613,0.74078z"/></g><rect class="fil1" width="6.82666" height="6.82666"/></svg>